<svg width="240" height="40" viewBox="0 0 240 40" fill="none" xmlns="http://www.w3.org/2000/svg">
<path d="M13.741 26.855C13.651 28.925 13.471 30.995 13.246 33.02C12.931 36.395 11.041 39.05 7.30604 39.05C3.48104 39.05 1.63604 36.395 1.32104 33.02C0.421035 24.47 0.421035 15.065 1.32104 6.56C1.63604 3.23 3.48104 0.574998 7.30604 0.574998C11.041 0.574998 12.931 3.23 13.246 6.56C13.471 8.585 13.651 10.655 13.741 12.725C16.036 12.185 18.556 12.14 20.851 12.68C20.986 10.61 21.121 8.585 21.346 6.56C21.706 3.23 23.551 0.574998 27.286 0.574998C31.066 0.574998 32.956 3.23 33.316 6.56C34.171 15.065 34.171 24.47 33.316 33.02C32.956 36.395 31.066 39.05 27.286 39.05C23.551 39.05 21.706 36.395 21.346 33.02C21.121 30.995 20.986 28.97 20.851 26.9C18.556 27.44 16.036 27.395 13.741 26.855ZM50.2083 31.355C50.3883 34.91 49.1283 39.05 43.9083 39.05C40.4433 39.05 37.9233 36.845 37.6983 33.38C37.5183 28.97 37.4283 24.38 37.4283 19.79C37.4283 9.035 40.6233 0.574998 52.4133 0.574998C64.2483 0.574998 67.4883 9.035 67.4883 19.79C67.4883 24.38 67.3983 28.97 67.1733 33.38C66.9933 36.845 64.4283 39.05 60.9183 39.05C55.7883 39.05 54.4383 34.865 54.6183 31.355C52.6833 31.85 52.1883 31.85 50.2083 31.355ZM56.2833 19.07C54.4833 17.72 52.0983 17.405 49.8483 17.315C48.8133 17.27 48.8133 18.845 49.5783 18.935C51.7833 19.07 53.6283 19.475 55.7433 20.6C56.3733 20.96 57.0933 19.565 56.2833 19.07ZM84.2346 19.97C84.1896 23.93 83.9196 29.195 83.5146 33.02C83.1996 36.395 81.3096 39.05 77.5746 39.05C73.7496 39.05 71.9046 36.395 71.5896 33.02C70.6896 24.47 70.6896 15.065 71.5896 6.56C71.9046 3.23 73.7496 0.574998 77.5746 0.574998C79.7346 0.574998 81.2646 1.43 82.2546 2.78C86.3046 8 88.4196 14.93 91.9296 20.69C92.2446 21.455 93.1896 21.005 92.7396 20.15C91.7946 18.215 91.0746 16.91 90.1296 15.2C90.2646 12.23 90.4446 8.99 90.6696 6.56C91.1196 3.23 92.9196 0.574998 96.6996 0.574998C100.48 0.574998 102.28 3.23 102.73 6.56C103.585 15.065 103.585 24.47 102.73 33.02C102.28 36.395 100.48 39.05 96.6996 39.05C94.0896 39.05 92.5146 37.7 91.4796 35.855C89.1396 31.715 86.9346 24.65 84.2346 19.97ZM114.288 38.96C110.913 38.6 107.448 35.855 107.133 31.13C106.683 23.3 106.818 16.28 107.178 8.36C107.448 3.59 110.913 0.889999 114.288 0.529999C116.583 0.304999 119.283 0.124998 121.938 0.124998C132.108 0.0349995 139.488 5.435 139.488 18.98C139.533 32.48 132.108 39.32 122.028 39.365C119.328 39.365 116.628 39.185 114.288 38.96ZM121.713 21.68C121.353 22.355 122.703 23.03 123.288 22.175C124.503 20.465 124.863 17.99 124.908 15.785C124.908 14.705 123.333 14.75 123.333 15.47C123.198 17.675 122.793 19.52 121.713 21.68ZM155.597 26.315C155.462 28.52 155.282 30.77 155.102 32.975C154.787 36.35 152.897 39.005 149.162 39.005C145.337 39.005 143.492 36.35 143.177 32.975C142.277 24.425 142.322 15.29 143.177 6.785C143.672 2.42 146.462 1.025 149.927 0.529999C152.042 0.304999 154.247 0.124998 156.362 0.124998C164.777 0.0349995 173.597 1.52 173.597 13.175C173.597 25.325 164.777 26.495 155.597 26.315ZM155.597 14.12C157.487 15.11 159.422 15.47 161.582 15.245C162.617 15.11 162.437 13.58 161.717 13.625C159.512 13.76 157.937 13.4 156.002 12.545C155.282 12.23 154.652 13.58 155.597 14.12ZM176.704 32.12C176.254 28.295 176.164 24.245 176.164 19.745C176.164 15.245 176.254 11.195 176.704 7.415C177.334 1.655 184.354 0.169998 190.834 0.124998C197.674 0.079999 204.829 1.34 204.829 8.54C204.829 11.465 203.749 12.14 200.194 11.195C199.024 10.88 197.629 10.655 196.504 10.655C193.264 10.655 191.059 11.15 189.124 11.915C188.179 12.275 188.494 13.58 189.529 13.175C193.489 11.78 199.339 11.645 201.769 13.13C203.839 14.435 204.829 16.37 204.829 19.745C204.829 23.12 203.839 25.1 201.769 26.36C199.339 27.89 193.489 27.755 189.529 26.315C188.494 25.955 188.179 27.215 189.124 27.575C191.059 28.34 193.264 28.79 196.504 28.79C197.629 28.79 199.024 28.61 200.194 28.295C203.749 27.395 204.829 28.025 204.829 30.905C204.829 38.105 197.674 39.41 190.834 39.365C184.354 39.32 177.334 37.79 176.704 32.12ZM217.019 15.785H214.049C209.729 15.785 206.894 12.815 206.894 8.45C206.894 3.905 209.729 1.25 214.049 0.934999C217.514 0.664999 220.484 0.574998 223.409 0.574998C226.289 0.574998 229.214 0.709999 232.544 0.934999C236.819 1.25 239.699 3.995 239.699 8.36C239.699 12.725 236.819 15.785 232.544 15.785H231.059C230.789 14.57 230.339 13.175 229.979 12.095C229.664 11.285 228.449 11.6 228.674 12.185C230.654 18.215 231.194 26.585 230.879 31.67C230.519 35.405 228.314 39.05 223.319 39.05C218.414 39.05 216.029 35.405 215.759 31.67C215.399 26.585 215.714 21.275 217.019 15.785Z" fill="#FF3239"/>
</svg>
