<svg width="20" height="22" viewBox="0 0 20 22" fill="none" xmlns="http://www.w3.org/2000/svg">
<path d="M14.5835 7.33334H5.41683V6.41667C5.41655 5.40046 5.754 4.41297 6.37614 3.60945C6.99827 2.80593 7.8698 2.23196 8.85371 1.97777C9.83763 1.72358 10.8781 1.80359 11.8116 2.20522C12.7451 2.60685 13.5186 3.30732 14.0106 4.19651C14.069 4.30178 14.1476 4.39451 14.2419 4.4694C14.3362 4.54429 14.4443 4.59988 14.5601 4.63299C14.6758 4.6661 14.797 4.67609 14.9166 4.66238C15.0362 4.64867 15.152 4.61153 15.2572 4.55309C15.3625 4.49465 15.4552 4.41604 15.5301 4.32176C15.605 4.22748 15.6606 4.11937 15.6937 4.00361C15.7268 3.88784 15.7368 3.76669 15.7231 3.64707C15.7094 3.52745 15.6723 3.41169 15.6138 3.30642C14.9248 2.06188 13.8417 1.0816 12.5348 0.519677C11.2279 -0.0422451 9.77133 -0.153948 8.39404 0.202127C7.01676 0.558202 5.79685 1.36186 4.92607 2.48679C4.05529 3.61171 3.58302 4.9941 3.5835 6.41667V7.72201C2.76708 8.07832 2.07218 8.66482 1.58379 9.40978C1.09539 10.1547 0.834668 11.0259 0.833496 11.9167V17.4167C0.834952 18.6318 1.3183 19.7967 2.17753 20.656C3.03676 21.5152 4.2017 21.9986 5.41683 22H14.5835C15.7986 21.9986 16.9636 21.5152 17.8228 20.656C18.682 19.7967 19.1654 18.6318 19.1668 17.4167V11.9167C19.1654 10.7015 18.682 9.5366 17.8228 8.67737C16.9636 7.81815 15.7986 7.33479 14.5835 7.33334ZM17.3335 17.4167C17.3335 18.146 17.0438 18.8455 16.528 19.3612C16.0123 19.8769 15.3128 20.1667 14.5835 20.1667H5.41683C4.68748 20.1667 3.98801 19.8769 3.47229 19.3612C2.95656 18.8455 2.66683 18.146 2.66683 17.4167V11.9167C2.66683 11.1873 2.95656 10.4879 3.47229 9.97213C3.98801 9.4564 4.68748 9.16667 5.41683 9.16667H14.5835C15.3128 9.16667 16.0123 9.4564 16.528 9.97213C17.0438 10.4879 17.3335 11.1873 17.3335 11.9167V17.4167Z" fill="#767676"/>
</svg>
