<svg width="24" height="24" viewBox="0 0 24 24" fill="none" xmlns="http://www.w3.org/2000/svg">
<g clip-path="url(#clip0_157_3813)">
<g clip-path="url(#clip1_157_3813)">
<g clip-path="url(#clip2_157_3813)">
<path d="M9.57551 1H9.40303C7.35505 1 5.69482 2.65949 5.69482 4.70657V8.2599C5.69482 10.307 7.35505 11.9665 9.40303 11.9665H9.57551C11.6235 11.9665 13.2837 10.307 13.2837 8.2599V4.70657C13.2837 2.65949 11.6235 1 9.57551 1Z" stroke="#767676" stroke-width="1.5" stroke-miterlimit="10"/>
<path d="M5.70508 5.84633C7.00822 5.84633 8.41677 5.8176 8.57966 4.24686C8.35928 6.35395 12.0866 5.84633 13.2844 5.84633" stroke="#767676" stroke-width="1.5" stroke-linecap="round" stroke-linejoin="round"/>
<path d="M8.68506 9.0069C8.68506 9.0069 9.43245 9.6486 10.1894 9.0069" stroke="#767676" stroke-width="1.5" stroke-linecap="round" stroke-linejoin="round"/>
<path d="M7.98523 23H4.02789C2.35105 23 1 21.7357 1 20.1745V19.8968C1 16.3626 4.0758 13.4893 7.87025 13.4893V11.976" stroke="#767676" stroke-width="1.5" stroke-linecap="round" stroke-linejoin="round"/>
<path d="M3.93213 19.8011H10.3999C11.2911 19.8011 12.0193 20.4906 12.0193 21.3526V21.4484C12.0193 22.3008 11.2911 23 10.3999 23H4.48788" stroke="#767676" stroke-width="1.5" stroke-linecap="round" stroke-linejoin="round"/>
<path d="M8.68506 19.8011V23" stroke="#767676" stroke-width="1.5" stroke-linecap="round" stroke-linejoin="round"/>
<path d="M10.2947 14.064C9.71974 14.1885 8.89569 14.1406 7.86084 13.4798" stroke="#767676" stroke-width="1.5" stroke-linecap="round" stroke-linejoin="round"/>
<path d="M11.1758 11.9665V13.0679" stroke="#767676" stroke-width="1.5" stroke-linecap="round" stroke-linejoin="round"/>
<path d="M11.5972 20.1362C11.5972 19.3796 12.0571 18.7283 12.7183 18.4122" stroke="#767676" stroke-width="1.5" stroke-linecap="round" stroke-linejoin="round"/>
<path d="M17.6626 18.259C18.5729 18.441 19.2628 19.2072 19.2628 20.1362V22.0901C19.2628 22.5881 18.8412 22.9904 18.3238 22.9904H12.7471C12.335 22.9904 11.9805 22.7893 11.7793 22.4828" stroke="#767676" stroke-width="1.5" stroke-linecap="round" stroke-linejoin="round"/>
<path d="M15.3153 20.8067C15.8815 20.8067 16.3406 20.3693 16.3406 19.8298C16.3406 19.2903 15.8815 18.8529 15.3153 18.8529C14.7491 18.8529 14.29 19.2903 14.29 19.8298C14.29 20.3693 14.7491 20.8067 15.3153 20.8067Z" stroke="#767676" stroke-width="1.5" stroke-linecap="round" stroke-linejoin="round"/>
<path d="M13.1496 12.7518C13.1496 12.7518 10.1025 12.6464 10.1025 15.4048C10.1025 16.7553 11.0128 17.1863 12.1435 16.602" stroke="#767676" stroke-width="1.5" stroke-linecap="round" stroke-linejoin="round"/>
<path d="M16.8676 12.3113C16.0244 11.8324 14.6733 11.842 13.8493 12.3113C12.5078 13.0775 12.0958 15.2517 12.2395 16.6117C12.4024 18.1824 13.8589 18.7954 15.3632 18.8529C16.8676 18.7954 18.3241 18.1824 18.4869 16.6117C18.6307 15.2517 18.2091 13.0775 16.8772 12.3113H16.8676Z" stroke="#767676" stroke-width="1.5" stroke-linecap="round" stroke-linejoin="round"/>
<path d="M17.5283 12.7518C17.5283 12.7518 20.5754 12.6464 20.5754 15.4048C20.5754 16.7553 19.6651 17.1863 18.5344 16.602" stroke="#767676" stroke-width="1.5" stroke-linecap="round" stroke-linejoin="round"/>
<path d="M15.6213 15.8836H15.008C14.6058 15.8836 14.2798 16.2095 14.2798 16.6115C14.2798 17.0136 14.6058 17.3394 15.008 17.3394H15.6213C16.0234 17.3394 16.3495 17.0136 16.3495 16.6115C16.3495 16.2095 16.0234 15.8836 15.6213 15.8836Z" fill="#767676"/>
<path d="M15.3149 16.7744V18.8528" stroke="#767676" stroke-width="1.5" stroke-miterlimit="10"/>
<path d="M20.5852 7.12013C20.2594 6.88068 18.228 5.626 18.228 4.40006V4.15104C18.228 3.45186 18.8029 2.88678 19.512 2.88678H19.5599C20.0007 2.88678 20.3935 3.10707 20.6235 3.44229" stroke="#767676" stroke-width="1.5" stroke-linecap="round" stroke-linejoin="round"/>
<path d="M20.5852 7.12003C20.2594 6.88059 18.228 5.62591 18.228 4.39996" stroke="#767676" stroke-width="1.5" stroke-linecap="round" stroke-linejoin="round"/>
<path d="M20.6428 7.12013C20.9686 6.88068 23 5.626 23 4.40006V4.15104C23 3.45186 22.4251 2.88678 21.716 2.88678H21.6681C21.2273 2.88678 20.8345 3.10707 20.6045 3.44229" stroke="#767676" stroke-width="1.5" stroke-linecap="round" stroke-linejoin="round"/>
<path d="M20.6426 7.12003C20.9684 6.88059 22.9997 5.62591 22.9997 4.39996" stroke="#767676" stroke-width="1.5" stroke-linecap="round" stroke-linejoin="round"/>
</g>
</g>
</g>
<defs>
<clipPath id="clip0_157_3813">
<rect width="23.981" height="23.981" fill="white"/>
</clipPath>
<clipPath id="clip1_157_3813">
<rect width="24" height="24" fill="white"/>
</clipPath>
<clipPath id="clip2_157_3813">
<rect width="24" height="24" fill="white"/>
</clipPath>
</defs>
</svg>
