<svg width="112" height="112" viewBox="0 0 112 112" fill="none" xmlns="http://www.w3.org/2000/svg">
<path d="M56 109.454C85.5221 109.454 109.454 85.5221 109.454 56C109.454 26.4778 85.5221 2.54541 56 2.54541C26.4778 2.54541 2.54541 26.4778 2.54541 56C2.54541 85.5221 26.4778 109.454 56 109.454Z" fill="#DBDBDB"/>
<mask id="mask0_202_4541" style="mask-type:alpha" maskUnits="userSpaceOnUse" x="2" y="2" width="108" height="108">
<path d="M56 109.454C85.5221 109.454 109.454 85.5221 109.454 56C109.454 26.4778 85.5221 2.54541 56 2.54541C26.4778 2.54541 2.54541 26.4778 2.54541 56C2.54541 85.5221 26.4778 109.454 56 109.454Z" fill="#DBDBDB"/>
</mask>
<g mask="url(#mask0_202_4541)">
<path d="M54.8596 109.607L74.1439 109.18L80.253 105.85L86.6676 99.9956C88.1847 85.7512 79.469 67.7396 79.469 67.7396L64.4203 56.1323H50.736L32.765 67.7396C32.765 67.7396 24.0494 85.5781 25.5665 99.8225L27.2159 103.04L37.9578 107.866L54.8494 109.607" fill="white"/>
</g>
<path d="M71.7923 24.4464C71.7923 24.4464 52.1617 20.2006 41.9697 24.3955C41.9697 24.3955 17.7777 25.3831 15.1406 43.7715C15.1406 43.7715 22.0032 55.9591 26.3101 56.7024C30.617 57.4457 29.4054 61.1519 29.4054 61.1519L33.6614 69.6028L55.8068 79.1024L77.9217 68.7984L82.2083 58.6675L97.1246 43.4864C97.1246 43.4864 91.9726 27.002 71.8024 24.4464H71.7923Z" fill="white"/>
<path d="M55.7965 22.4916C55.7965 22.4916 46.1543 21.9214 41.9594 24.3956C41.5725 24.6297 40.259 24.4058 39.8008 24.4465C37.8561 24.5992 35.9216 24.9861 34.0481 25.5563C27.491 27.5214 21.7892 31.6552 17.3499 36.8072C14.7536 39.821 13.7252 43.0283 16.6372 46.2967C17.7776 47.6814 18.9179 49.0763 20.0685 50.461C22.6139 53.5563 28.1834 61.0094 32.6328 56.0101C32.6328 56.0101 37.8052 51.4385 40.1674 43.8225" stroke="#DBDBDB" stroke-width="1.5" stroke-linecap="round" stroke-linejoin="round"/>
<path d="M29.395 58.6777C29.6699 61.2741 30.6474 63.8603 32.0627 66.0494C35.7994 71.8021 42.8757 73.6145 49.331 74.0828C61.7325 74.9788 80.7012 74.8465 82.1877 58.6879" stroke="#DBDBDB" stroke-width="1.5" stroke-linecap="round" stroke-linejoin="round"/>
<path d="M44.5658 54.5236C46.1009 54.5236 47.3454 53.2791 47.3454 51.744C47.3454 50.2088 46.1009 48.9644 44.5658 48.9644C43.0306 48.9644 41.7861 50.2088 41.7861 51.744C41.7861 53.2791 43.0306 54.5236 44.5658 54.5236Z" fill="#DBDBDB"/>
<path d="M54.7883 58.8L52.6705 56.6822C51.8763 55.888 52.4363 54.5134 53.5665 54.5134H58.0363C59.1665 54.5134 59.7367 55.8778 58.9323 56.6822L56.8145 58.8C56.2545 59.36 55.3483 59.36 54.7883 58.8Z" fill="#DBDBDB" stroke="#DBDBDB" stroke-width="1.5" stroke-linecap="round" stroke-linejoin="round"/>
<path d="M55.3991 59.5737V62.9439C51.4079 65.9577 49.0151 61.5185 49.0151 61.5185" stroke="#DBDBDB" stroke-width="1.5" stroke-linecap="round" stroke-linejoin="round"/>
<path d="M55.7964 22.4916C55.7964 22.4916 65.4386 21.9214 69.6335 24.3956C70.0204 24.6297 71.3338 24.4058 71.792 24.4465C73.7368 24.5992 75.6713 24.9861 77.5448 25.5563C84.1018 27.5214 89.8037 31.6552 94.2429 36.8072C96.8393 39.821 97.8677 43.0283 94.9557 46.2967L91.5244 50.461C88.9789 53.5563 83.4095 61.0094 78.96 56.0101C78.96 56.0101 73.7877 51.4385 71.4255 43.8225" stroke="#DBDBDB" stroke-width="1.5" stroke-linecap="round" stroke-linejoin="round"/>
<path d="M67.0272 54.5236C68.5623 54.5236 69.8068 53.2791 69.8068 51.744C69.8068 50.2088 68.5623 48.9644 67.0272 48.9644C65.492 48.9644 64.2476 50.2088 64.2476 51.744C64.2476 53.2791 65.492 54.5236 67.0272 54.5236Z" fill="#DBDBDB"/>
<path d="M62.5876 61.5185C62.5876 61.5185 60.1949 65.9577 56.2036 62.9439V59.5737" stroke="#DBDBDB" stroke-width="1.5" stroke-linecap="round" stroke-linejoin="round"/>
<path d="M56 109.454C85.5221 109.454 109.454 85.5221 109.454 56C109.454 26.4778 85.5221 2.54541 56 2.54541C26.4778 2.54541 2.54541 26.4778 2.54541 56C2.54541 85.5221 26.4778 109.454 56 109.454Z" stroke="#DBDBDB" stroke-miterlimit="10"/>
</svg>
