<svg width="32" height="32" viewBox="0 0 32 32" fill="none" xmlns="http://www.w3.org/2000/svg">
<path d="M26.5151 16.7588C26.5151 16.0017 26.4466 15.283 26.3291 14.5834H15.2646V18.9055H21.5998C21.3158 20.3238 20.4835 21.5217 19.2498 22.3363V25.2113H23.0293C25.2422 23.2084 26.5151 20.2567 26.5151 16.7588Z" fill="#4285F4"/>
<path d="M15.2646 28C18.437 28 21.0905 26.965 23.0293 25.2112L19.2497 22.3362C18.1922 23.0262 16.8508 23.4479 15.2646 23.4479C12.1998 23.4479 9.60507 21.4258 8.67487 18.6946H4.77783V21.6558C6.70677 25.4125 10.6723 28 15.2646 28Z" fill="#34A853"/>
<path d="M8.67479 18.6945C8.43 18.0045 8.30271 17.2666 8.30271 16.4999C8.30271 15.7333 8.4398 14.9954 8.67479 14.3054V11.3441H4.77776C3.97485 12.8966 3.51465 14.6408 3.51465 16.4999C3.51465 18.3591 3.97485 20.1033 4.77776 21.6558L8.67479 18.6945Z" fill="#FBBC05"/>
<path d="M15.2651 9.55208C16.9982 9.55208 18.5452 10.1367 19.7692 11.2771L23.1179 7.99958C21.091 6.14042 18.4375 5 15.2651 5C10.6728 5 6.70726 7.5875 4.77832 11.3442L8.67536 14.3054C9.60556 11.5742 12.2003 9.55208 15.2651 9.55208Z" fill="#EA4335"/>
</svg>
