<svg width="23" height="22" viewBox="0 0 23 22" fill="none" xmlns="http://www.w3.org/2000/svg">
<g clip-path="url(#clip0_157_3816)">
<path d="M18.3258 7.71508V6.41078C18.3258 4.71033 17.6503 3.07952 16.4479 1.87711C15.2455 0.67471 13.6147 -0.000793457 11.9143 -0.000793457C10.2138 -0.000793457 8.58301 0.67471 7.38061 1.87711C6.1782 3.07952 5.5027 4.71033 5.5027 6.41078V7.71508C4.68693 8.07111 3.99258 8.65714 3.50458 9.40152C3.01657 10.1459 2.75605 11.0163 2.75488 11.9064V17.4021C2.75634 18.6162 3.23931 19.7802 4.09785 20.6388C4.9564 21.4973 6.12041 21.9803 7.33458 21.9817H16.494C17.7081 21.9803 18.8722 21.4973 19.7307 20.6388C20.5892 19.7802 21.0722 18.6162 21.0737 17.4021V11.9064C21.0725 11.0163 20.812 10.1459 20.324 9.40152C19.836 8.65714 19.1416 8.07111 18.3258 7.71508ZM7.33458 6.41078C7.33458 5.19617 7.81708 4.03131 8.67594 3.17245C9.5348 2.31359 10.6997 1.83108 11.9143 1.83108C13.1289 1.83108 14.2937 2.31359 15.1526 3.17245C16.0115 4.03131 16.494 5.19617 16.494 6.41078V7.32672H7.33458V6.41078ZM19.2418 17.4021C19.2418 18.1308 18.9523 18.8297 18.437 19.3451C17.9217 19.8604 17.2227 20.1499 16.494 20.1499H7.33458C6.60581 20.1499 5.90689 19.8604 5.39158 19.3451C4.87626 18.8297 4.58676 18.1308 4.58676 17.4021V11.9064C4.58676 11.1776 4.87626 10.4787 5.39158 9.96342C5.90689 9.4481 6.60581 9.1586 7.33458 9.1586H16.494C17.2227 9.1586 17.9217 9.4481 18.437 9.96342C18.9523 10.4787 19.2418 11.1776 19.2418 11.9064V17.4021Z" fill="#767676"/>
<path d="M11.914 12.8224C11.6711 12.8224 11.4381 12.9189 11.2663 13.0906C11.0945 13.2624 10.998 13.4954 10.998 13.7383V15.5702C10.998 15.8131 11.0945 16.0461 11.2663 16.2178C11.4381 16.3896 11.6711 16.4861 11.914 16.4861C12.1569 16.4861 12.3899 16.3896 12.5617 16.2178C12.7334 16.0461 12.8299 15.8131 12.8299 15.5702V13.7383C12.8299 13.4954 12.7334 13.2624 12.5617 13.0906C12.3899 12.9189 12.1569 12.8224 11.914 12.8224Z" fill="#767676"/>
</g>
<defs>
<clipPath id="clip0_157_3816">
<rect width="21.9825" height="21.9825" fill="white" transform="translate(0.922852 -0.000793457)"/>
</clipPath>
</defs>
</svg>
