<svg width="32" height="32" viewBox="0 0 32 32" fill="none" xmlns="http://www.w3.org/2000/svg">
<path d="M27.5825 15.3056C27.5869 16.9921 27.1929 18.6558 26.4325 20.1611C25.5309 21.965 24.1449 23.4823 22.4298 24.543C20.7146 25.6037 18.738 26.1659 16.7214 26.1667C15.0349 26.1711 13.3712 25.7771 11.8658 25.0167L4.58252 27.4445L7.01029 20.1611C6.24993 18.6558 5.8559 16.9921 5.8603 15.3056C5.86108 13.2889 6.4233 11.3123 7.48399 9.59719C8.54468 7.88203 10.0619 6.49605 11.8658 5.59449C13.3712 4.83413 15.0349 4.4401 16.7214 4.44449H17.3603C20.0236 4.59143 22.5392 5.71558 24.4253 7.6017C26.3114 9.48782 27.4355 12.0034 27.5825 14.6667V15.3056Z" fill="#222222"/>
</svg>
